<?xml version="1.0" standalone="no"?>
<!DOCTYPE svg PUBLIC "-//W3C//DTD SVG 20010904//EN"
 "http://www.w3.org/TR/2001/REC-SVG-20010904/DTD/svg10.dtd">
<svg version="1.0" xmlns="http://www.w3.org/2000/svg"
 width="700.000000pt" height="700.000000pt" viewBox="0 0 700.000000 700.000000"
 preserveAspectRatio="xMidYMid meet">
<metadata>
Created by potrace 1.11, written by Peter Selinger 2001-2013
</metadata>
<g transform="translate(0.000000,700.000000) scale(0.100000,-0.100000)"
fill="#000000" stroke="none">
<path d="M2962 6113 c3 -173 7 -205 25 -251 45 -111 137 -197 250 -232 55 -17
93 -20 244 -20 l179 0 0 -202 c0 -201 2 -226 35 -303 26 -61 121 -148 191
-175 52 -20 79 -23 244 -25 102 -1 192 -5 201 -9 9 -4 21 -17 26 -29 5 -12 9
-154 8 -319 -1 -283 -2 -299 -20 -317 -18 -17 -39 -20 -220 -23 -193 -4 -202
-5 -255 -31 -63 -31 -107 -69 -148 -130 -56 -82 -56 -76 -57 -682 l-1 -560
-379 -1 c-209 -1 -398 -4 -420 -8 -260 -44 -456 -199 -552 -436 -48 -120 -49
-145 -49 -930 l1 -735 728 1 c761 2 787 3 892 39 230 79 417 289 460 516 3 13
7 37 11 52 3 16 6 518 6 1118 l0 1089 37 0 c99 1 222 38 322 96 100 58 215
181 267 286 75 151 81 206 80 667 0 268 -4 419 -13 466 -55 313 -324 557 -637
579 -27 2 -50 5 -52 7 -2 2 -6 31 -9 65 -9 92 -25 151 -67 239 -80 166 -208
283 -390 353 -97 37 -161 42 -558 42 l-384 0 4 -197z m699 -4136 c2 -272 -2
-523 -7 -539 -12 -39 -18 -40 -455 -39 l-236 1 1 329 c1 308 2 330 20 350 18
20 30 21 250 23 127 2 275 2 329 0 l97 -3 1 -122z"/>
</g>
</svg>
