<?xml version="1.0" standalone="no"?>
<!DOCTYPE svg PUBLIC "-//W3C//DTD SVG 20010904//EN"
 "http://www.w3.org/TR/2001/REC-SVG-20010904/DTD/svg10.dtd">
<svg version="1.0" xmlns="http://www.w3.org/2000/svg"
 width="1240.000000pt" height="1240.000000pt" viewBox="0 0 1240.000000 1240.000000"
 preserveAspectRatio="xMidYMid meet">
<metadata>
Created by potrace 1.11, written by Peter Selinger 2001-2013
</metadata>
<g transform="translate(0.000000,1240.000000) scale(0.100000,-0.100000)"
fill="#000000" stroke="none">
<path d="M4651 11998 c0 -222 4 -407 7 -413 4 -5 8 -19 10 -30 5 -33 10 -60
13 -62 1 -2 2 -6 4 -10 15 -56 22 -75 42 -114 13 -26 23 -50 23 -53 0 -4 22
-39 49 -79 63 -93 198 -227 229 -227 6 0 12 -4 12 -10 0 -18 184 -99 280 -123
91 -23 106 -24 482 -23 l388 1 0 -75 c0 -41 1 -237 1 -436 1 -313 4 -370 19
-433 43 -171 103 -277 225 -395 94 -91 237 -168 354 -191 13 -2 32 -7 44 -11
12 -4 195 -8 407 -9 270 -2 394 -6 414 -14 42 -17 74 -58 82 -105 4 -23 7
-325 6 -671 0 -568 -2 -635 -17 -673 -10 -23 -23 -42 -31 -42 -8 0 -14 -4 -14
-9 0 -27 -176 -51 -207 -28 -7 5 -13 6 -13 1 0 -5 -127 -9 -282 -8 -311 0
-368 -6 -501 -56 -116 -44 -260 -159 -343 -276 -31 -42 -86 -149 -86 -164 0
-3 -5 -18 -12 -35 -35 -83 -40 -165 -39 -610 1 -242 1 -541 1 -665 0 -124 1
-241 2 -260 1 -19 2 -39 2 -45 0 -5 -1 -100 -1 -210 0 -110 0 -213 -1 -230 -1
-16 -2 -34 -2 -40 1 -179 1 -412 -1 -450 l-2 -50 -792 -1 c-693 -1 -952 -6
-972 -18 -3 -2 -28 -7 -56 -10 -27 -4 -61 -10 -75 -13 -50 -10 -236 -74 -262
-89 -16 -8 -28 -12 -28 -7 0 4 -4 4 -8 -2 -4 -5 -42 -28 -85 -50 -184 -95
-381 -266 -515 -447 -23 -31 -42 -62 -42 -68 0 -5 -3 -10 -8 -10 -4 0 -23 -28
-42 -62 -38 -68 -121 -248 -115 -248 2 0 -3 -17 -12 -37 -8 -21 -15 -40 -15
-43 -1 -3 -2 -9 -4 -15 -12 -36 -34 -138 -39 -180 -4 -27 -9 -61 -12 -75 -3
-14 -6 -755 -7 -1647 l-2 -1623 25 0 c161 -3 3169 2 3206 5 56 5 112 13 135
20 8 2 31 6 50 9 19 3 63 14 98 25 34 11 62 17 62 15 0 -3 10 2 22 10 12 9 30
16 38 16 44 0 294 140 415 232 56 44 206 193 247 248 23 30 45 57 50 58 4 2 8
10 8 18 0 8 5 14 10 14 6 0 10 4 10 9 0 6 13 29 29 53 41 63 128 236 136 273
1 5 5 19 9 30 17 43 26 72 37 115 17 67 20 82 24 115 2 17 4 30 5 30 18 0 21
252 22 1764 1 1479 0 1575 -16 1586 -10 8 -13 16 -7 19 7 4 7 15 1 31 -5 13
-6 27 -1 29 4 3 5 26 1 51 -4 27 -3 45 3 45 5 0 4 6 -2 14 -7 8 -8 17 -3 20 5
3 6 27 2 53 -3 27 -3 60 0 73 4 14 3 37 -1 53 -5 17 -4 27 3 27 7 0 6 5 -1 14
-7 8 -8 17 -3 20 5 3 6 28 2 56 -4 28 -4 53 0 55 4 2 4 25 0 50 -4 27 -3 45 3
45 5 0 4 6 -2 14 -7 8 -8 17 -3 20 5 3 6 27 2 53 -3 27 -3 60 0 73 4 14 3 37
-1 53 -5 17 -4 27 3 27 7 0 6 5 -1 14 -7 8 -8 17 -3 20 5 3 6 28 2 56 -4 28
-4 53 0 55 4 2 4 25 0 50 -4 27 -3 45 3 45 5 0 4 6 -2 14 -7 8 -8 17 -3 20 5
3 6 27 2 53 -3 27 -3 60 0 73 4 14 3 37 -1 53 -5 17 -4 27 3 27 7 0 7 4 0 13
-6 7 -7 18 -2 26 4 8 5 23 1 33 -3 10 -5 36 -3 58 3 33 8 39 26 39 34 -2 199
10 216 16 8 3 29 7 45 9 108 14 275 67 405 130 209 99 411 261 546 438 27 35
52 65 56 66 4 2 8 10 8 18 0 8 4 14 9 14 5 0 13 10 17 23 3 12 12 29 19 37 27
31 105 199 139 300 42 125 57 190 74 310 9 73 9 1872 -1 1930 -11 63 -19 119
-18 125 0 2 -6 23 -14 45 -8 22 -14 42 -15 45 0 3 0 6 -1 8 0 1 -2 12 -5 24
-6 34 -51 149 -91 233 -41 85 -126 221 -186 295 -48 59 -247 255 -260 255 -4
0 -15 7 -24 15 -22 23 -150 105 -162 105 -6 0 -11 5 -11 10 0 6 -8 10 -17 10
-9 0 -24 6 -32 14 -17 14 -196 88 -246 101 -16 5 -34 10 -40 11 -19 6 -140 32
-180 39 -47 8 -122 13 -186 14 l-47 1 0 43 c1 42 -11 163 -18 202 -2 11 -7 34
-10 50 -17 98 -60 242 -75 260 -5 5 -9 15 -9 23 0 31 -140 293 -161 300 -5 2
-9 8 -9 14 0 14 -108 144 -181 217 -35 35 -98 89 -139 119 -41 31 -77 59 -80
62 -8 8 -42 29 -70 42 -14 7 -27 15 -30 18 -13 14 -184 91 -250 113 -81 27
-177 53 -225 61 -16 2 -30 5 -30 6 0 9 -184 12 -933 16 l-873 5 2 -403z m1534
-8887 c15 -2 12 -1417 -3 -1454 -15 -36 -29 -50 -72 -72 -33 -17 -81 -18 -735
-17 -385 0 -706 1 -712 1 -10 1 -13 150 -13 711 0 757 0 750 48 793 46 41 62
42 782 41 382 -1 700 -2 705 -3z"/>
</g>
</svg>
