<svg width="185" height="103" viewBox="0 0 185 103" fill="none" xmlns="http://www.w3.org/2000/svg">
<path d="M61.9901 57.1934V47.6699H66.7585C68.0231 47.6699 69.2358 48.1723 70.1301 49.0663C71.0244 49.9603 71.5269 51.1729 71.5269 52.4369V66.7381C70.2735 66.7381 69.0327 66.4911 67.8748 66.0111C66.7169 65.5314 65.6653 64.8283 64.7797 63.9419C63.8936 63.0555 63.1916 62.003 62.7129 60.8453C62.2343 59.6872 61.9885 58.4462 61.9901 57.1934Z" fill="#263238"/>
<path d="M52.4531 66.7381V47.6699H47.6848C46.4202 47.6699 45.2074 48.1723 44.3131 49.0663C43.4189 49.9603 42.9164 51.1729 42.9164 52.4369V76.2718C45.4456 76.2718 47.8714 75.2676 49.66 73.4796C51.4485 71.6916 52.4531 69.2665 52.4531 66.7381Z" fill="#263238"/>
<path d="M42.918 38.1361H52.455V35.7526V33.369C52.455 32.1047 51.9526 30.8922 51.0583 29.9982C50.164 29.1042 48.9513 28.602 47.6867 28.602H42.918V38.1361Z" fill="#263238"/>
<path d="M90.5952 38.1361H100.132V35.7526V33.369C100.132 32.1047 99.6298 30.8922 98.7355 29.9982C97.8413 29.1042 96.6282 28.602 95.3636 28.602H90.5952V38.1361Z" fill="#263238"/>
<path d="M100.13 66.7381V47.6699H95.3619C94.0973 47.6699 92.8842 48.1723 91.9899 49.0663C91.096 49.9603 90.5935 51.1729 90.5935 52.4369V76.2718C93.1227 76.2718 95.5485 75.2676 97.3371 73.4796C99.1256 71.6916 100.13 69.2665 100.13 66.7381Z" fill="#263238"/>
<path d="M166.877 47.6699H147.804V52.4369C147.804 53.7013 148.306 54.9139 149.2 55.8079C150.095 56.7018 151.307 57.204 152.572 57.204H165.947C166.193 57.204 166.428 57.3017 166.602 57.4753C166.776 57.6493 166.874 57.885 166.874 58.131V71.5015C166.874 72.7659 167.376 73.9781 168.27 74.8721C169.165 75.7661 170.378 76.2685 171.642 76.2685H176.411V57.204C176.411 54.6762 175.406 52.2517 173.618 50.4637C171.831 48.6758 169.406 47.6709 166.877 47.6699Z" fill="#263238"/>
<path d="M157.34 66.7381V47.6699H152.572C151.307 47.6699 150.095 48.1723 149.2 49.0663C148.306 49.9603 147.804 51.1729 147.804 52.4369V76.2718C150.333 76.2718 152.759 75.2676 154.547 73.4796C156.336 71.6916 157.34 69.2665 157.34 66.7381Z" fill="#263238"/>
<path d="M15.3903 76.2543H21.2643C21.3642 76.2543 21.4626 76.2306 21.5512 76.1844C21.6398 76.1385 21.716 76.0715 21.7732 75.9896C21.8305 75.908 21.8671 75.8133 21.8799 75.7143C21.8928 75.6156 21.8815 75.5149 21.8471 75.4211L12.9461 50.984C12.5913 50.0092 11.9451 49.1673 11.0952 48.5721C10.2453 47.9772 9.23289 47.6577 8.1953 47.6577H2.3125L11.8175 73.7543C12.0846 74.4872 12.5707 75.12 13.2098 75.5674C13.8489 76.0143 14.6102 76.2543 15.3903 76.2543Z" fill="#263238"/>
<path d="M21.2095 76.2543H15.2773C15.1846 76.2543 15.0934 76.2319 15.0113 76.189C14.9292 76.1464 14.8586 76.0843 14.8055 76.0084C14.7525 75.9325 14.7186 75.845 14.7066 75.7532C14.6946 75.6614 14.705 75.568 14.7368 75.4812L23.659 50.984C24.014 50.0088 24.6604 49.1667 25.5106 48.5715C26.3609 47.9766 27.3737 47.6573 28.4116 47.6577H34.2927L24.7876 73.7543C24.5202 74.4878 24.0333 75.1213 23.3932 75.5687C22.753 76.016 21.9905 76.2553 21.2095 76.2543Z" fill="#263238"/>
<path d="M71.5249 57.1511L70.6085 66.6849C70.8513 66.6856 71.0839 66.7823 71.2554 66.954C71.4268 67.1259 71.5233 67.3587 71.5233 67.6013V71.452C71.5233 72.7163 72.0258 73.9289 72.92 74.8229C73.8143 75.7169 75.027 76.219 76.2917 76.219H81.06V66.6849C81.06 64.1568 80.0557 61.732 78.2675 59.944C76.4793 58.156 74.0541 57.1515 71.5249 57.1511Z" fill="#263238"/>
<path d="M72.4401 57.204C72.1969 57.204 71.9637 57.1076 71.7919 56.9356C71.6198 56.7639 71.5233 56.5308 71.5233 56.2875V52.4369C71.5233 51.1729 71.0209 49.9603 70.1266 49.0663C69.2323 48.1723 68.0196 47.6699 66.755 47.6699H61.9866V57.204C61.9866 59.7324 62.9912 62.1575 64.7797 63.9455C66.5683 65.7335 68.9941 66.7381 71.5233 66.7381L73.9075 57.4813L72.4401 57.204Z" fill="#263238"/>
<path d="M61.9635 57.2039H71.5006V66.738C68.971 66.738 66.5456 65.7334 64.757 63.9455C62.9684 62.1575 61.9635 59.7324 61.9635 57.2039Z" fill="#263238"/>
<path d="M81.0568 66.7239H71.5198V57.1898H72.2105C74.5567 57.1898 76.8068 58.1217 78.4659 59.7799C80.1246 61.4385 81.0568 63.688 81.0568 66.0336V66.7239Z" fill="#263238"/>
<path d="M138.272 9.534H128.736V14.301C128.736 15.5653 129.238 16.7778 130.132 17.6718C131.026 18.5657 132.239 19.068 133.504 19.068H137.354C137.597 19.068 137.83 19.1645 138.002 19.3364C138.174 19.5082 138.271 19.7413 138.271 19.9843V23.835C138.271 25.0993 138.773 26.3118 139.667 27.2058C140.561 28.0997 141.774 28.602 143.039 28.602H147.807V19.068C147.807 16.5397 146.803 14.115 145.015 12.327C143.227 10.5391 140.801 9.53446 138.272 9.534Z" fill="#C62828"/>
<path d="M128.707 9.534H127.792C128.033 9.53443 128.264 9.62947 128.435 9.79859C128.606 9.96775 128.704 10.1974 128.707 10.438V9.534Z" fill="#C62828"/>
<path d="M147.804 28.602V19.068H143.035C141.771 19.068 140.558 19.5702 139.664 20.4642C138.77 21.3582 138.267 22.5707 138.267 23.835V27.6839C138.267 27.9269 138.17 28.16 137.999 28.3318C137.827 28.5037 137.593 28.6002 137.35 28.6002H133.502C132.237 28.6002 131.025 29.1024 130.13 29.9964C129.236 30.8904 128.734 32.1029 128.734 33.3674V38.1341H138.271C140.799 38.1334 143.223 37.1285 145.011 35.3412C146.799 33.5536 147.804 31.1296 147.804 28.602Z" fill="#C62828"/>
<path d="M138.269 38.1288H128.736V47.6645H138.269V38.1288Z" fill="#C62828"/>
<path d="M138.271 66.7275V47.6699H133.502C132.237 47.6699 131.025 48.1723 130.13 49.0663C129.236 49.9603 128.734 51.1729 128.734 52.4369V65.8074C128.734 66.0534 128.636 66.2891 128.462 66.4631C128.288 66.6367 128.052 66.7344 127.807 66.7344H114.434C113.169 66.7344 111.956 67.2366 111.062 68.1306C110.168 69.0245 109.665 70.2371 109.665 71.5015V76.2685H128.739C129.992 76.2679 131.232 76.0203 132.389 75.5406C133.546 75.0606 134.596 74.3578 135.481 73.4717C136.367 72.5856 137.069 71.5342 137.547 70.3767C138.026 69.2196 138.271 67.9797 138.271 66.7275Z" fill="#263238"/>
<path d="M109.667 57.204V76.2718H114.435C115.7 76.2718 116.913 75.7697 117.807 74.8757C118.702 73.9817 119.204 72.7692 119.204 71.5051V58.1221C119.206 57.8784 119.305 57.6453 119.477 57.4737C119.65 57.3017 119.884 57.205 120.127 57.204H133.502C134.767 57.204 135.98 56.7018 136.874 55.8079C137.768 54.9139 138.271 53.7013 138.271 52.4369V47.6699H119.197C116.669 47.6718 114.245 48.6771 112.458 50.4651C110.671 52.2527 109.667 54.6765 109.667 57.204Z" fill="#263238"/>
<path d="M119.2 0V4.17731C119.201 5.59815 119.766 6.96065 120.771 7.96517C121.776 8.96968 123.139 9.534 124.56 9.534H128.707V14.3187C128.707 14.9423 128.83 15.5598 129.068 16.136C129.307 16.7122 129.657 17.2358 130.098 17.6768C130.539 18.1179 131.062 18.4677 131.638 18.7064C132.215 18.9451 132.832 19.068 133.456 19.068H138.271V9.50574C138.27 6.98512 137.268 4.56782 135.486 2.78531C133.703 1.00279 131.285 0.000936125 128.764 0H119.2Z" fill="#C62828"/>
<path d="M7.65719 96.6202V99.9034C7.24536 100.206 6.80543 100.429 6.33741 100.571C5.87316 100.71 5.37521 100.779 4.84354 100.779C4.18084 100.779 3.57992 100.676 3.04079 100.47C2.50539 100.265 2.04674 99.9783 1.66485 99.6115C1.2867 99.2448 0.994667 98.807 0.788742 98.2983C0.582821 97.7896 0.479858 97.234 0.479858 96.6315C0.479858 96.0217 0.579078 95.4622 0.77751 94.9534C0.975946 94.4447 1.25675 94.0069 1.61992 93.6402C1.98684 93.2734 2.43051 92.9892 2.95093 92.7871C3.47136 92.5851 4.05544 92.4841 4.70313 92.4841C5.03263 92.4841 5.33963 92.5101 5.62417 92.5626C5.91247 92.6151 6.17831 92.6881 6.42165 92.7815C6.66876 92.8713 6.8934 92.9816 7.09558 93.1126C7.29776 93.2437 7.48309 93.3876 7.65157 93.5448L7.21913 94.2295C7.15174 94.3381 7.06377 94.4054 6.95518 94.4315C6.84662 94.4539 6.72869 94.4259 6.60137 94.3473C6.47781 94.2763 6.35426 94.205 6.23071 94.134C6.10715 94.0631 5.96863 94.0013 5.81512 93.9488C5.66537 93.8964 5.495 93.8534 5.30405 93.8198C5.11687 93.7861 4.8997 93.7693 4.65259 93.7693C4.252 93.7693 3.8888 93.8366 3.56307 93.9713C3.2411 94.106 2.96591 94.2988 2.73752 94.5493C2.50913 94.7999 2.33316 95.1013 2.20961 95.4529C2.08605 95.8045 2.02428 96.1974 2.02428 96.6315C2.02428 97.0953 2.0898 97.5106 2.22084 97.8774C2.35563 98.2402 2.54283 98.5488 2.78245 98.8034C3.02581 99.0539 3.31785 99.2467 3.65854 99.3814C3.99928 99.5125 4.37928 99.5779 4.79861 99.5779C5.09814 99.5779 5.36583 99.5462 5.60171 99.4825C5.83758 99.4187 6.06784 99.3329 6.29248 99.2243V97.7539H5.27036C5.17303 97.7539 5.09626 97.7278 5.0401 97.6753C4.9877 97.6192 4.96147 97.5519 4.96147 97.4733V96.6202H7.65719ZM20.1609 96.6315C20.1609 97.2264 20.0616 97.7783 19.8632 98.2871C19.6685 98.7922 19.3915 99.2299 19.032 99.6003C18.6726 99.9707 18.2402 100.261 17.7347 100.47C17.2293 100.676 16.6677 100.779 16.0499 100.779C15.4359 100.779 14.8762 100.676 14.3707 100.47C13.8653 100.261 13.4309 99.9707 13.0678 99.6003C12.7083 99.2299 12.4294 98.7922 12.231 98.2871C12.0325 97.7783 11.9333 97.2264 11.9333 96.6315C11.9333 96.0366 12.0325 95.4866 12.231 94.9815C12.4294 94.4728 12.7083 94.033 13.0678 93.6626C13.4309 93.2922 13.8653 93.004 14.3707 92.7983C14.8762 92.5887 15.4359 92.4841 16.0499 92.4841C16.4617 92.4841 16.8492 92.5326 17.2124 92.63C17.5756 92.7234 17.9088 92.8581 18.2121 93.0341C18.5154 93.2061 18.7868 93.4177 19.0264 93.6682C19.2698 93.9152 19.4757 94.1921 19.6442 94.4988C19.8127 94.8055 19.94 95.1386 20.0261 95.4978C20.1159 95.857 20.1609 96.235 20.1609 96.6315ZM18.6165 96.6315C18.6165 96.1861 18.5565 95.7877 18.4367 95.4361C18.3169 95.0805 18.1466 94.7794 17.9257 94.5325C17.7048 94.2856 17.4352 94.0967 17.117 93.9657C16.8025 93.8346 16.4468 93.7693 16.0499 93.7693C15.653 93.7693 15.2955 93.8346 14.9772 93.9657C14.6627 94.0967 14.3932 94.2856 14.1685 94.5325C13.9476 94.7794 13.7773 95.0805 13.6575 95.4361C13.5376 95.7877 13.4777 96.1861 13.4777 96.6315C13.4777 97.0768 13.5376 97.4769 13.6575 97.8325C13.7773 98.1841 13.9476 98.4835 14.1685 98.7304C14.3932 98.9737 14.6627 99.1606 14.9772 99.2916C15.2955 99.4227 15.653 99.4881 16.0499 99.4881C16.4468 99.4881 16.8025 99.4227 17.117 99.2916C17.4352 99.1606 17.7048 98.9737 17.9257 98.7304C18.1466 98.4835 18.3169 98.1841 18.4367 97.8325C18.5565 97.4769 18.6165 97.0768 18.6165 96.6315ZM32.0022 96.6315C32.0022 97.2264 31.903 97.7727 31.7045 98.2702C31.5061 98.7677 31.2271 99.1962 30.8677 99.5554C30.5083 99.9146 30.0758 100.193 29.5704 100.392C29.065 100.59 28.5034 100.689 27.8856 100.689H24.7911V92.5739H27.8856C28.5034 92.5739 29.065 92.6749 29.5704 92.8769C30.0758 93.0753 30.5083 93.3539 30.8677 93.7131C31.2271 94.0687 31.5061 94.4952 31.7045 94.9927C31.903 95.4902 32.0022 96.0366 32.0022 96.6315ZM30.4521 96.6315C30.4521 96.1861 30.3922 95.7877 30.2724 95.4361C30.1564 95.0805 29.986 94.7814 29.7614 94.5381C29.5405 94.2912 29.2709 94.1024 28.9526 93.9713C28.6381 93.8402 28.2825 93.7749 27.8856 93.7749H26.3075V99.4881H27.8856C28.2825 99.4881 28.6381 99.4227 28.9526 99.2916C29.2709 99.1606 29.5405 98.9737 29.7614 98.7304C29.986 98.4835 30.1564 98.1841 30.2724 97.8325C30.3922 97.4769 30.4521 97.0768 30.4521 96.6315ZM37.364 92.0295C37.5437 92.3249 37.6653 92.6336 37.729 92.9555C37.7928 93.2734 37.7984 93.5897 37.7459 93.9039C37.6934 94.2146 37.583 94.5137 37.4145 94.8019C37.2497 95.0861 37.027 95.3426 36.7462 95.5708L36.3082 95.307C36.2708 95.2845 36.2444 95.2585 36.2295 95.2284C36.2147 95.1948 36.2071 95.1631 36.2071 95.133C36.2107 95.0993 36.2183 95.0677 36.2295 95.0376C36.2444 95.0076 36.2632 94.9815 36.2857 94.959C36.3643 94.8656 36.4393 94.7421 36.5103 94.5886C36.5814 94.4351 36.6303 94.2631 36.6564 94.0723C36.6864 93.8815 36.6825 93.6775 36.6451 93.4606C36.6114 93.2437 36.5272 93.0265 36.3924 92.8096C36.3287 92.701 36.3102 92.6075 36.3363 92.529C36.3663 92.4468 36.4281 92.3887 36.5216 92.355L37.364 92.0295ZM46.7465 94.0499C46.7015 94.1284 46.6526 94.1865 46.6004 94.2238C46.5516 94.2575 46.4898 94.2743 46.4151 94.2743C46.3365 94.2743 46.2503 94.2463 46.1568 94.1902C46.0669 94.1304 45.9582 94.0647 45.831 93.9937C45.7035 93.9228 45.5539 93.859 45.3818 93.8029C45.2133 93.7432 45.0127 93.7131 44.7808 93.7131C44.5711 93.7131 44.3877 93.7392 44.2305 93.7917C44.0732 93.8402 43.9401 93.9096 43.8317 93.9993C43.7267 94.0891 43.648 94.1978 43.5958 94.3249C43.5433 94.4483 43.5172 94.585 43.5172 94.7346C43.5172 94.9254 43.5694 95.0845 43.6745 95.2116C43.7828 95.3387 43.9252 95.4473 44.1013 95.5371C44.277 95.6269 44.4776 95.7074 44.7022 95.7784C44.9269 95.8494 45.1571 95.9263 45.393 96.0085C45.6289 96.0871 45.8591 96.1805 46.0838 96.2891C46.3084 96.3938 46.5086 96.5285 46.6847 96.6932C46.8604 96.854 47.0008 97.0524 47.1059 97.2881C47.2143 97.5238 47.2688 97.81 47.2688 98.1468C47.2688 98.5135 47.205 98.8575 47.0778 99.1794C46.9543 99.4973 46.7706 99.7763 46.5274 100.016C46.2876 100.251 45.9939 100.439 45.6457 100.577C45.2975 100.712 44.8988 100.779 44.4495 100.779C44.1912 100.779 43.9365 100.753 43.6857 100.7C43.4346 100.652 43.1931 100.58 42.9612 100.487C42.7326 100.394 42.5176 100.281 42.3154 100.15C42.1132 100.019 41.9335 99.8733 41.7762 99.7126L42.2199 98.9886C42.2572 98.9361 42.3058 98.8932 42.3659 98.8595C42.4257 98.8222 42.4895 98.8034 42.5569 98.8034C42.6504 98.8034 42.7515 98.8427 42.8601 98.9212C42.9685 98.9962 43.0977 99.0804 43.2477 99.1738C43.3973 99.2672 43.5714 99.3534 43.7699 99.4319C43.9721 99.5069 44.2136 99.5442 44.4944 99.5442C44.9249 99.5442 45.2582 99.4432 45.4941 99.2411C45.73 99.0355 45.8479 98.7416 45.8479 98.36C45.8479 98.1468 45.7934 97.9728 45.685 97.8381C45.58 97.7034 45.4396 97.5911 45.2638 97.5014C45.0877 97.4079 44.8875 97.3294 44.6629 97.2656C44.4383 97.2019 44.2097 97.1329 43.9777 97.058C43.7455 96.9831 43.5172 96.8933 43.2926 96.7886C43.0679 96.684 42.8674 96.5473 42.6917 96.3789C42.5156 96.2106 42.3732 96.0009 42.2648 95.7504C42.1598 95.4958 42.1076 95.1835 42.1076 94.8131C42.1076 94.5176 42.1654 94.2295 42.2817 93.9488C42.4013 93.6682 42.5737 93.4193 42.7984 93.2024C43.023 92.9855 43.2998 92.8115 43.6295 92.6805C43.9589 92.5494 44.3372 92.4841 44.764 92.4841C45.243 92.4841 45.685 92.559 46.0894 92.7085C46.4937 92.8581 46.838 93.0677 47.1227 93.3371L46.7465 94.0499ZM64.4665 92.5739L61.1867 100.689H59.822L56.5422 92.5739H57.7553C57.8861 92.5739 57.9928 92.6056 58.0754 92.6693C58.1577 92.733 58.2194 92.8152 58.2607 92.9162L60.1758 97.8661C60.2392 98.0269 60.2994 98.2049 60.3555 98.3993C60.4153 98.5901 60.4715 98.7902 60.524 98.9998C60.5689 98.7902 60.6175 98.5901 60.67 98.3993C60.7222 98.2049 60.7804 98.0269 60.8441 97.8661L62.748 92.9162C62.7777 92.83 62.8358 92.7515 62.9221 92.6805C63.0119 92.6095 63.1203 92.5739 63.2478 92.5739H64.4665ZM70.1268 100.689H68.6105V92.5739H70.1268V100.689ZM79.5731 94.0499C79.5281 94.1284 79.4796 94.1865 79.427 94.2238C79.3785 94.2575 79.3167 94.2743 79.2417 94.2743C79.1631 94.2743 79.0769 94.2463 78.9834 94.1902C78.8935 94.1304 78.7848 94.0647 78.6576 93.9937C78.5305 93.9228 78.3805 93.859 78.2084 93.8029C78.0399 93.7432 77.8397 93.7131 77.6074 93.7131C77.3977 93.7131 77.2143 93.7392 77.0571 93.7917C76.8998 93.8402 76.767 93.9096 76.6583 93.9993C76.5536 94.0891 76.475 94.1978 76.4224 94.3249C76.3699 94.4483 76.3438 94.585 76.3438 94.7346C76.3438 94.9254 76.3963 95.0845 76.5011 95.2116C76.6098 95.3387 76.7518 95.4473 76.9279 95.5371C77.104 95.6269 77.3042 95.7074 77.5288 95.7784C77.7535 95.8494 77.9837 95.9263 78.2196 96.0085C78.4555 96.0871 78.6857 96.1805 78.9104 96.2891C79.135 96.3938 79.3352 96.5285 79.5113 96.6932C79.6874 96.854 79.8278 97.0524 79.9325 97.2881C80.0412 97.5238 80.0954 97.81 80.0954 98.1468C80.0954 98.5135 80.0316 98.8575 79.9044 99.1794C79.7809 99.4973 79.5975 99.7763 79.354 100.016C79.1145 100.251 78.8205 100.439 78.4723 100.577C78.1241 100.712 77.7254 100.779 77.2761 100.779C77.0178 100.779 76.763 100.753 76.5123 100.7C76.2616 100.652 76.0201 100.58 75.7878 100.487C75.5596 100.394 75.3442 100.281 75.142 100.15C74.9398 100.019 74.7601 99.8733 74.6028 99.7126L75.0465 98.9886C75.0838 98.9361 75.1327 98.8932 75.1925 98.8595C75.2523 98.8222 75.3161 98.8034 75.3835 98.8034C75.477 98.8034 75.5781 98.8427 75.6867 98.9212C75.7954 98.9962 75.9246 99.0804 76.0742 99.1738C76.2239 99.2672 76.398 99.3534 76.5965 99.4319C76.7987 99.5069 77.0402 99.5442 77.321 99.5442C77.7515 99.5442 78.0848 99.4432 78.3207 99.2411C78.5565 99.0355 78.6745 98.7416 78.6745 98.36C78.6745 98.1468 78.6203 97.9728 78.5116 97.8381C78.4069 97.7034 78.2665 97.5911 78.0904 97.5014C77.9143 97.4079 77.7141 97.3294 77.4895 97.2656C77.2649 97.2019 77.0366 97.1329 76.8043 97.058C76.5721 96.9831 76.3438 96.8933 76.1192 96.7886C75.8945 96.684 75.6943 96.5473 75.5183 96.3789C75.3422 96.2106 75.2001 96.0009 75.0914 95.7504C74.9867 95.4958 74.9342 95.1835 74.9342 94.8131C74.9342 94.5176 74.9923 94.2295 75.1083 93.9488C75.2282 93.6682 75.4003 93.4193 75.625 93.2024C75.8496 92.9855 76.1268 92.8115 76.4561 92.6805C76.7855 92.5494 77.1638 92.4841 77.5906 92.4841C78.0699 92.4841 78.5116 92.559 78.916 92.7085C79.3203 92.8581 79.6649 93.0677 79.9493 93.3371L79.5731 94.0499ZM86.2331 100.689H84.7167V92.5739H86.2331V100.689ZM99.0995 96.6315C99.0995 97.2264 99.0004 97.7783 98.8018 98.2871C98.6072 98.7922 98.3301 99.2299 97.9706 99.6003C97.6112 99.9707 97.1788 100.261 96.6733 100.47C96.1679 100.676 95.6063 100.779 94.9885 100.779C94.3744 100.779 93.8148 100.676 93.3093 100.47C92.8039 100.261 92.3695 99.9707 92.0064 99.6003C91.647 99.2299 91.3681 98.7922 91.1696 98.2871C90.971 97.7783 90.8719 97.2264 90.8719 96.6315C90.8719 96.0366 90.971 95.4866 91.1696 94.9815C91.3681 94.4728 91.647 94.033 92.0064 93.6626C92.3695 93.2922 92.8039 93.004 93.3093 92.7983C93.8148 92.5887 94.3744 92.4841 94.9885 92.4841C95.4005 92.4841 95.788 92.5326 96.151 92.63C96.5141 92.7234 96.8474 92.8581 97.1507 93.0341C97.454 93.2061 97.7255 93.4177 97.965 93.6682C98.2085 93.9152 98.4143 94.1921 98.5828 94.4988C98.7513 94.8055 98.8785 95.1386 98.9647 95.4978C99.0546 95.857 99.0995 96.235 99.0995 96.6315ZM97.5551 96.6315C97.5551 96.1861 97.4953 95.7877 97.3753 95.4361C97.2554 95.0805 97.0853 94.7794 96.8643 94.5325C96.6433 94.2856 96.3737 94.0967 96.0556 93.9657C95.7411 93.8346 95.3853 93.7693 94.9885 93.7693C94.5918 93.7693 94.234 93.8346 93.9158 93.9657C93.6013 94.0967 93.3318 94.2856 93.1071 94.5325C92.8861 94.7794 92.716 95.0805 92.5961 95.4361C92.4761 95.7877 92.4164 96.1861 92.4164 96.6315C92.4164 97.0768 92.4761 97.4769 92.5961 97.8325C92.716 98.1841 92.8861 98.4835 93.1071 98.7304C93.3318 98.9737 93.6013 99.1606 93.9158 99.2916C94.234 99.4227 94.5918 99.4881 94.9885 99.4881C95.3853 99.4881 95.7411 99.4227 96.0556 99.2916C96.3737 99.1606 96.6433 98.9737 96.8643 98.7304C97.0853 98.4835 97.2554 98.1841 97.3753 97.8325C97.4953 97.4769 97.5551 97.0768 97.5551 96.6315ZM110.576 92.5739V100.689H109.801C109.681 100.689 109.58 100.67 109.497 100.633C109.419 100.592 109.342 100.524 109.267 100.431L105.027 95.0208C105.05 95.2677 105.061 95.4958 105.061 95.7055V100.689H103.73V92.5739H104.522C104.585 92.5739 104.64 92.5775 104.684 92.5851C104.733 92.5887 104.774 92.5999 104.808 92.6188C104.845 92.6336 104.881 92.658 104.915 92.6917C104.948 92.7218 104.986 92.7627 105.027 92.8152L109.284 98.2478C109.273 98.1167 109.264 97.9876 109.256 97.8605C109.248 97.7334 109.245 97.6156 109.245 97.507V92.5739H110.576ZM127.299 98.7753C127.382 98.7753 127.455 98.807 127.518 98.8707L128.114 99.5161C127.784 99.9238 127.378 100.236 126.895 100.453C126.416 100.67 125.839 100.779 125.165 100.779C124.562 100.779 124.02 100.676 123.537 100.47C123.057 100.265 122.647 99.9783 122.307 99.6115C121.966 99.2448 121.704 98.807 121.52 98.2983C121.341 97.7896 121.251 97.234 121.251 96.6315C121.251 96.0217 121.348 95.4641 121.543 94.959C121.738 94.4503 122.011 94.0126 122.363 93.6458C122.718 93.279 123.142 92.9948 123.632 92.7927C124.122 92.5871 124.665 92.4841 125.261 92.4841C125.852 92.4841 126.376 92.5815 126.833 92.7759C127.294 92.9703 127.685 93.2249 128.007 93.5392L127.502 94.2407C127.472 94.2856 127.432 94.3249 127.384 94.3585C127.339 94.3922 127.275 94.409 127.193 94.409C127.137 94.409 127.078 94.3942 127.019 94.3641C126.959 94.3305 126.893 94.2912 126.822 94.2463C126.751 94.1978 126.668 94.1453 126.575 94.0891C126.481 94.033 126.373 93.9825 126.249 93.9376C126.126 93.8891 125.981 93.8498 125.817 93.8198C125.656 93.7861 125.469 93.7693 125.255 93.7693C124.892 93.7693 124.559 93.8346 124.256 93.9657C123.956 94.0928 123.698 94.28 123.48 94.5269C123.263 94.7702 123.095 95.0693 122.975 95.4248C122.855 95.7764 122.795 96.1789 122.795 96.6315C122.795 97.088 122.859 97.4938 122.986 97.8493C123.117 98.2049 123.293 98.504 123.514 98.7473C123.735 98.9906 123.995 99.1774 124.295 99.3085C124.594 99.4356 124.916 99.4993 125.261 99.4993C125.467 99.4993 125.652 99.4881 125.817 99.4656C125.985 99.4432 126.139 99.4075 126.277 99.359C126.419 99.3105 126.552 99.2487 126.676 99.1738C126.803 99.0952 126.929 98.9998 127.052 98.8876C127.09 98.8539 127.129 98.8278 127.17 98.809C127.211 98.7865 127.254 98.7753 127.299 98.7753ZM139.298 92.5739V100.689H137.782V97.1422H133.968V100.689H132.452V92.5739H133.968V96.0646H137.782V92.5739H139.298ZM147.678 99.4712C147.971 99.4712 148.231 99.4227 148.459 99.3253C148.691 99.2279 148.886 99.0916 149.043 98.9156C149.2 98.7397 149.32 98.5264 149.403 98.2758C149.489 98.0253 149.532 97.7447 149.532 97.434V92.5739H151.043V97.434C151.043 97.9167 150.964 98.3637 150.807 98.7753C150.653 99.183 150.43 99.5366 150.138 99.836C149.85 100.131 149.498 100.364 149.083 100.532C148.667 100.697 148.199 100.779 147.678 100.779C147.155 100.779 146.684 100.697 146.269 100.532C145.853 100.364 145.499 100.131 145.207 99.836C144.919 99.5366 144.696 99.183 144.539 98.7753C144.386 98.3637 144.309 97.9167 144.309 97.434V92.5739H145.82V97.4284C145.82 97.739 145.861 98.0197 145.943 98.2702C146.029 98.5208 146.151 98.736 146.308 98.9156C146.469 99.0916 146.664 99.2279 146.892 99.3253C147.124 99.4227 147.386 99.4712 147.678 99.4712ZM158.504 96.435C158.789 96.435 159.036 96.3994 159.246 96.3284C159.459 96.2574 159.633 96.16 159.768 96.0366C159.906 95.9095 160.009 95.7596 160.077 95.5876C160.144 95.4156 160.178 95.2264 160.178 95.0208C160.178 94.6091 160.041 94.2932 159.768 94.0723C159.498 93.8515 159.085 93.7412 158.527 93.7412H157.561V96.435H158.504ZM162.391 100.689H161.026C160.768 100.689 160.58 100.588 160.464 100.386L158.757 97.7876C158.693 97.6902 158.622 97.6212 158.544 97.5799C158.469 97.5387 158.356 97.5182 158.207 97.5182H157.561V100.689H156.05V92.5739H158.527C159.077 92.5739 159.549 92.632 159.942 92.7478C160.339 92.8601 160.663 93.0192 160.914 93.2249C161.168 93.4305 161.355 93.6775 161.475 93.9657C161.595 94.2499 161.655 94.5642 161.655 94.9085C161.655 95.1815 161.614 95.4397 161.531 95.683C161.453 95.9263 161.337 96.1468 161.183 96.3452C161.034 96.5437 160.846 96.7176 160.622 96.8672C160.401 97.0167 160.148 97.1346 159.863 97.2207C159.961 97.2769 160.051 97.3442 160.133 97.4228C160.215 97.4977 160.29 97.5875 160.358 97.6922L162.391 100.689ZM172.038 98.7753C172.121 98.7753 172.194 98.807 172.257 98.8707L172.852 99.5161C172.523 99.9238 172.117 100.236 171.634 100.453C171.155 100.67 170.578 100.779 169.904 100.779C169.301 100.779 168.758 100.676 168.275 100.47C167.796 100.265 167.386 99.9783 167.045 99.6115C166.705 99.2448 166.443 98.807 166.259 98.2983C166.079 97.7896 165.99 97.234 165.99 96.6315C165.99 96.0217 166.087 95.4641 166.282 94.959C166.476 94.4503 166.75 94.0126 167.102 93.6458C167.457 93.279 167.88 92.9948 168.371 92.7927C168.861 92.5871 169.404 92.4841 169.999 92.4841C170.591 92.4841 171.115 92.5815 171.572 92.7759C172.032 92.9703 172.424 93.2249 172.746 93.5392L172.24 94.2407C172.21 94.2856 172.171 94.3249 172.122 94.3585C172.077 94.3922 172.014 94.409 171.931 94.409C171.875 94.409 171.817 94.3942 171.757 94.3641C171.697 94.3305 171.632 94.2912 171.561 94.2463C171.49 94.1978 171.407 94.1453 171.314 94.0891C171.22 94.033 171.111 93.9825 170.988 93.9376C170.864 93.8891 170.72 93.8498 170.555 93.8198C170.395 93.7861 170.207 93.7693 169.994 93.7693C169.631 93.7693 169.297 93.8346 168.994 93.9657C168.695 94.0928 168.436 94.28 168.219 94.5269C168.002 94.7702 167.834 95.0693 167.714 95.4248C167.594 95.7764 167.534 96.1789 167.534 96.6315C167.534 97.088 167.598 97.4938 167.725 97.8493C167.856 98.2049 168.032 98.504 168.253 98.7473C168.474 98.9906 168.734 99.1774 169.033 99.3085C169.333 99.4356 169.655 99.4993 169.999 99.4993C170.206 99.4993 170.391 99.4881 170.555 99.4656C170.724 99.4432 170.877 99.4075 171.016 99.359C171.158 99.3105 171.291 99.2487 171.415 99.1738C171.542 99.0952 171.667 98.9998 171.791 98.8876C171.829 98.8539 171.868 98.8278 171.909 98.809C171.95 98.7865 171.993 98.7753 172.038 98.7753ZM184.037 92.5739V100.689H182.521V97.1422H178.707V100.689H177.191V92.5739H178.707V96.0646H182.521V92.5739H184.037Z" fill="#263238"/>
</svg>
