<?xml version="1.0" encoding="UTF-8" standalone="no"?>
<svg
   xmlns:dc="http://purl.org/dc/elements/1.1/"
   xmlns:cc="http://creativecommons.org/ns#"
   xmlns:rdf="http://www.w3.org/1999/02/22-rdf-syntax-ns#"
   xmlns:svg="http://www.w3.org/2000/svg"
   xmlns="http://www.w3.org/2000/svg"
   xmlns:sodipodi="http://sodipodi.sourceforge.net/DTD/sodipodi-0.dtd"
   xmlns:inkscape="http://www.inkscape.org/namespaces/inkscape"
   inkscape:version="1.0 (4035a4fb49, 2020-05-01)"
   sodipodi:docname="kakaotalk.svg"
   id="svg8"
   version="1.1"
   viewBox="0 0 256 256"
   height="2500"
   width="2500">
  <metadata
     id="metadata14">
    <rdf:RDF>
      <cc:Work
         rdf:about="">
        <dc:format>image/svg+xml</dc:format>
        <dc:type
           rdf:resource="http://purl.org/dc/dcmitype/StillImage" />
        <dc:title></dc:title>
      </cc:Work>
    </rdf:RDF>
  </metadata>
  <defs
     id="defs12" />
  <sodipodi:namedview
     inkscape:current-layer="svg8"
     inkscape:window-maximized="1"
     inkscape:window-y="-11"
     inkscape:window-x="3229"
     inkscape:cy="1177.2847"
     inkscape:cx="1051.8936"
     inkscape:zoom="0.588"
     showgrid="false"
     id="namedview10"
     inkscape:window-height="1526"
     inkscape:window-width="2880"
     inkscape:pageshadow="2"
     inkscape:pageopacity="0"
     guidetolerance="10"
     gridtolerance="10"
     objecttolerance="10"
     borderopacity="1"
     bordercolor="#666666"
     pagecolor="#ffffff" />
  <path
     id="path4"
     d="M128 36C70.562 36 24 72.713 24 118c0 29.279 19.466 54.97 48.748 69.477-1.593 5.494-10.237 35.344-10.581 37.689 0 0-.207 1.762.934 2.434s2.483.15 2.483.15c3.272-.457 37.943-24.811 43.944-29.04 5.995.849 12.168 1.29 18.472 1.29 57.438 0 104-36.712 104-82 0-45.287-46.562-82-104-82z" />
  <path
     style="fill:#ffffff"
     id="path6"
     d="M70.5 146.625c-3.309 0-6-2.57-6-5.73V105.25h-9.362c-3.247 0-5.888-2.636-5.888-5.875s2.642-5.875 5.888-5.875h30.724c3.247 0 5.888 2.636 5.888 5.875s-2.642 5.875-5.888 5.875H76.5v35.645c0 3.16-2.691 5.73-6 5.73zM123.112 146.547c-2.502 0-4.416-1.016-4.993-2.65l-2.971-7.778-18.296-.001-2.973 7.783c-.575 1.631-2.488 2.646-4.99 2.646a9.155 9.155 0 0 1-3.814-.828c-1.654-.763-3.244-2.861-1.422-8.52l14.352-37.776c1.011-2.873 4.082-5.833 7.99-5.922 3.919.088 6.99 3.049 8.003 5.928l14.346 37.759c1.826 5.672.236 7.771-1.418 8.532a9.176 9.176 0 0 1-3.814.827c-.001 0 0 0 0 0zm-11.119-21.056L106 108.466l-5.993 17.025h11.986zM138 145.75c-3.171 0-5.75-2.468-5.75-5.5V99.5c0-3.309 2.748-6 6.125-6s6.125 2.691 6.125 6v35.25h12.75c3.171 0 5.75 2.468 5.75 5.5s-2.579 5.5-5.75 5.5H138zM171.334 146.547c-3.309 0-6-2.691-6-6V99.5c0-3.309 2.691-6 6-6s6 2.691 6 6v12.896l16.74-16.74c.861-.861 2.044-1.335 3.328-1.335 1.498 0 3.002.646 4.129 1.772 1.051 1.05 1.678 2.401 1.764 3.804.087 1.415-.384 2.712-1.324 3.653l-13.673 13.671 14.769 19.566a5.951 5.951 0 0 1 1.152 4.445 5.956 5.956 0 0 1-2.328 3.957 5.94 5.94 0 0 1-3.609 1.211 5.953 5.953 0 0 1-4.793-2.385l-14.071-18.644-2.082 2.082v13.091a6.01 6.01 0 0 1-6.002 6.003z"
     fill="#FFE812" />
  <path
     transform="scale(0.1024)"
     id="path18"
     d="m 845.64495,1426.3518 c -16.79443,-4.83 -26.37806,-12.0861 -31.1368,-23.5747 -9.28868,-22.4249 -3.65964,-41.2656 71.57422,-239.564 39.73549,-104.7332 75.02711,-195.92605 78.42582,-202.65079 7.49245,-14.82469 27.25882,-32.73049 43.72751,-39.61156 28.7905,-12.02943 67.4956,-0.44848 88.9239,26.60693 12.3596,15.60529 155.4177,389.70162 160.5315,419.78922 4.2615,25.0732 -1.7071,42.3793 -18.042,52.3132 -22.6754,13.7897 -60.3337,11.7677 -75.9889,-4.0802 -4.0296,-4.0791 -14.0361,-25.4013 -22.2368,-47.3826 l -14.9104,-39.966 h -91.0318 -91.03177 l -15.95969,41.0263 c -8.77783,22.5645 -19.15591,44.0041 -23.06241,47.6435 -13.01481,12.1252 -37.19296,15.9474 -59.78238,9.4507 z m 247.97015,-202.7123 c 0.1681,-5.521 -56.2702,-164.1157 -58.403,-164.1157 -1.2511,0 -5.327,8.801 -9.0577,19.5578 -3.7307,10.7568 -16.8373,48.2568 -29.12582,83.3334 l -22.34273,63.7755 h 59.42575 c 32.6842,0 59.4608,-1.148 59.5035,-2.551 z"
     style="fill:none;stroke:none;stroke-width:3.40136" />
  <path
     transform="scale(0.1024)"
     id="path20"
     d="m 666.66667,1422.9014 c -11.97353,-6.6223 -22.59283,-17.7923 -29.24258,-30.7591 -6.11616,-11.9263 -6.47171,-22.3189 -6.47171,-189.1698 v -176.5502 l -53.5319,-2.4887 c -57.66715,-2.6809 -65.72341,-4.9098 -80.28134,-22.2109 -18.35379,-21.81222 -13.52787,-55.6906 10.54974,-74.06013 l 12.18359,-9.29522 166.381,-0.94431 c 163.36694,-0.9272 166.58816,-0.81626 177.81748,6.12383 31.73718,19.61467 34.97262,61.96559 6.74857,88.33713 -8.57758,8.0146 -11.9267,8.6088 -60.69732,10.7683 -28.39034,1.257 -54.29737,2.4143 -57.57118,2.5717 -5.39599,0.2595 -5.95283,5.1348 -5.95721,52.157 -0.003,28.5289 -1.01904,110.5628 -2.25863,182.2977 -2.16162,125.0926 -2.54729,130.8625 -9.42985,141.0755 -11.31363,16.7883 -27.75871,26.1322 -45.78248,26.0131 -8.6094,-0.057 -18.71469,-1.7965 -22.45618,-3.8659 z"
     style="fill:none;stroke-width:3.40136" />
  <path
     transform="scale(0.1024)"
     id="path22"
     d="m 666.66667,1422.9014 c -11.97353,-6.6223 -22.59283,-17.7923 -29.24258,-30.7591 -6.11616,-11.9263 -6.47171,-22.3189 -6.47171,-189.1698 v -176.5502 l -53.5319,-2.4887 c -57.66715,-2.6809 -65.72341,-4.9098 -80.28134,-22.2109 -18.35379,-21.81222 -13.52787,-55.6906 10.54974,-74.06013 l 12.18359,-9.29522 166.381,-0.94431 c 163.36694,-0.9272 166.58816,-0.81626 177.81748,6.12383 31.73718,19.61467 34.97262,61.96559 6.74857,88.33713 -8.57758,8.0146 -11.9267,8.6088 -60.69732,10.7683 -28.39034,1.257 -54.29737,2.4143 -57.57118,2.5717 -5.39599,0.2595 -5.95283,5.1348 -5.95721,52.157 -0.003,28.5289 -1.01904,110.5628 -2.25863,182.2977 -2.16162,125.0926 -2.54729,130.8625 -9.42985,141.0755 -11.31363,16.7883 -27.75871,26.1322 -45.78248,26.0131 -8.6094,-0.057 -18.71469,-1.7965 -22.45618,-3.8659 z"
     style="fill:none;stroke-width:3.40136" />
  <path
     transform="scale(0.1024)"
     id="path24"
     d="m 666.66667,1422.9014 c -11.97353,-6.6223 -22.59283,-17.7923 -29.24258,-30.7591 -6.11616,-11.9263 -6.47171,-22.3189 -6.47171,-189.1698 v -176.5502 l -53.5319,-2.4887 c -57.66715,-2.6809 -65.72341,-4.9098 -80.28134,-22.2109 -18.35379,-21.81222 -13.52787,-55.6906 10.54974,-74.06013 l 12.18359,-9.29522 166.381,-0.94431 c 163.36694,-0.9272 166.58816,-0.81626 177.81748,6.12383 31.73718,19.61467 34.97262,61.96559 6.74857,88.33713 -8.57758,8.0146 -11.9267,8.6088 -60.69732,10.7683 -28.39034,1.257 -54.29737,2.4143 -57.57118,2.5717 -5.39599,0.2595 -5.95283,5.1348 -5.95721,52.157 -0.003,28.5289 -1.01904,110.5628 -2.25863,182.2977 -2.16162,125.0926 -2.54729,130.8625 -9.42985,141.0755 -11.31363,16.7883 -27.75871,26.1322 -45.78248,26.0131 -8.6094,-0.057 -18.71469,-1.7965 -22.45618,-3.8659 z"
     style="fill:none;stroke-width:3.40136" />
  <path
     transform="scale(0.1024)"
     id="path26"
     d="m 666.66667,1422.9014 c -11.97353,-6.6223 -22.59283,-17.7923 -29.24258,-30.7591 -6.11616,-11.9263 -6.47171,-22.3189 -6.47171,-189.1698 v -176.5502 l -53.5319,-2.4887 c -57.66715,-2.6809 -65.72341,-4.9098 -80.28134,-22.2109 -18.35379,-21.81222 -13.52787,-55.6906 10.54974,-74.06013 l 12.18359,-9.29522 166.381,-0.94431 c 163.36694,-0.9272 166.58816,-0.81626 177.81748,6.12383 31.73718,19.61467 34.97262,61.96559 6.74857,88.33713 -8.57758,8.0146 -11.9267,8.6088 -60.69732,10.7683 -28.39034,1.257 -54.29737,2.4143 -57.57118,2.5717 -5.39599,0.2595 -5.95283,5.1348 -5.95721,52.157 -0.003,28.5289 -1.01904,110.5628 -2.25863,182.2977 -2.16162,125.0926 -2.54729,130.8625 -9.42985,141.0755 -11.31363,16.7883 -27.75871,26.1322 -45.78248,26.0131 -8.6094,-0.057 -18.71469,-1.7965 -22.45618,-3.8659 z"
     style="fill:none;stroke-width:3.40136" />
</svg>
