<svg width="82" height="163" viewBox="0 0 82 163" fill="none" xmlns="http://www.w3.org/2000/svg">
<path d="M61.4702 20.3773H51.2861H41.1016V30.5617C41.1016 36.1864 45.6615 40.7462 51.2861 40.7462H59.5115C60.5929 40.7462 61.469 41.6231 61.469 42.7045V50.9311C61.469 56.5557 66.0289 61.1156 71.6535 61.1156H81.838V50.9311V40.7462C81.8383 29.497 72.7194 20.3776 61.4702 20.3773Z" fill="#C62728"/>
<path d="M81.8358 61.1156V50.9311V40.7466H71.6517C66.027 40.7466 61.4671 45.3065 61.4671 50.9311V59.1566C61.4671 60.2379 60.5903 61.1144 59.5089 61.1144H51.2823C45.6576 61.1144 41.0978 65.6743 41.0978 71.2989V81.4838H51.2823H61.4671C72.7157 81.4838 81.835 72.3645 81.8358 61.1156Z" fill="#C62728"/>
<path d="M61.4667 79.4838H41.0978V102.484H61.4667V79.4838Z" fill="#C62728"/>
<path d="M61.4664 142.601V132.416V122.232V112.047V101.862H51.2819C45.6572 101.862 41.097 106.422 41.097 112.047V122.232V132.416V140.621C41.097 141.714 40.21 142.601 39.1172 142.601H30.9122H20.7273H10.5424C4.91817 142.601 0.357941 147.161 0.357941 152.785V162.97H10.5424H20.7273H30.9122H41.097C52.3467 162.971 61.4664 153.851 61.4664 142.601Z" fill="#263238"/>
<path d="M0.357635 122.232V132.416V142.601V152.786V162.971H10.5421C16.1671 162.971 20.727 158.411 20.727 152.786V142.601V132.416V124.212C20.727 123.118 21.614 122.232 22.7071 122.232H30.9122H41.0967H51.2816C56.9062 122.232 61.466 117.672 61.466 112.047V101.862H51.2816H41.0971H30.9126H20.7273C9.4777 101.862 0.357635 110.982 0.357635 122.232Z" fill="#263238"/>
<path d="M20.7258 0V8.92651C20.7258 15.2507 25.8524 20.3773 32.1769 20.3773H41.0351V30.6002C41.0351 36.2037 45.578 40.7466 51.1826 40.7466H61.4675V20.3773V20.315C61.4675 9.09517 52.372 0 41.1521 0H20.7258V0Z" fill="#C62728"/>
</svg>
